# xmcd CD database file
#
# Track frame offsets:
#	150
#	56751
#	120093
#	158275
#	239110
#
# Disc length: 3350 seconds
#
# Revision: 0
# Processed by: cddbd v1.4PL0 Copyright (c) Steve Scherf et al.
# Submitted via: CDex 1.50beta9
#
DISCID=340d1405
DTITLE=Tatsu Aoki - Rooted: Origins of Now  --- The Miyumi Project Big Band
DYEAR=2001
DGENRE=Jazz
TTITLE0=Part One: Now
TTITLE1=Part Two: Origin --- Intro: Chinese Tradition
TTITLE2=Part 3: 1.5 Generation
TTITLE3=Part 4: ...of Now, as Well
TTITLE4=Part 5:  Origin: Chamber Version
EXTD=YEAR: 2001
EXTT0=
EXTT1=
EXTT2=
EXTT3=
EXTT4=
PLAYORDER=
